<?xml version="1.0" encoding="UTF-8" standalone="no"?>
<!-- Created with Inkscape (http://www.inkscape.org/) -->
<svg
   xmlns:svg="http://www.w3.org/2000/svg"
   xmlns="http://www.w3.org/2000/svg"
   version="1.0"
   width="551.39801"
   height="177.87"
   id="svg2">
  <defs
     id="defs4" />
  <g
     id="g12">
    <path
       d="M 20.6539,16.404 C 20.6539,14.009 20.5016,11.618 19.4586,9.40698 C 18.0836,6.53999 15.6305,6.05998 14.3766,6.05998 C 12.5836,6.05998 10.4,6.83699 9.17735,9.61798 C 8.22032,11.681 8.06797,14.009 8.06797,16.404 C 8.06797,18.642 8.18907,21.333 9.41563,23.607 C 10.7008,26.025 12.8805,26.622 14.3453,26.622 C 15.9586,26.622 18.232,25.997 19.5484,23.157 C 20.5016,21.095 20.6539,18.763 20.6539,16.404 z M 14.3453,25.966 C 13.1812,25.966 11.4156,25.22 10.8805,22.349 C 10.5484,20.556 10.5484,17.806 10.5484,16.044 C 10.5484,14.13 10.5484,12.157 10.7906,10.544 C 11.357,6.98599 13.5992,6.71999 14.3453,6.71999 C 15.3336,6.71999 17.3062,7.25499 17.8727,10.216 C 18.1734,11.888 18.1734,14.161 18.1734,16.044 C 18.1734,18.286 18.1734,20.318 17.8414,22.232 C 17.3961,25.068 15.6891,25.966 14.3453,25.966 z M 35.6539,16.404 C 35.6539,14.009 35.5016,11.618 34.4586,9.40698 C 33.0836,6.53999 30.6305,6.05998 29.3766,6.05998 C 27.5836,6.05998 25.4,6.83699 24.1773,9.61798 C 23.2203,11.681 23.068,14.009 23.068,16.404 C 23.068,18.642 23.1891,21.333 24.4156,23.607 C 25.7008,26.025 27.8805,26.622 29.3453,26.622 C 30.9586,26.622 33.232,25.997 34.5484,23.157 C 35.5016,21.095 35.6539,18.763 35.6539,16.404 z M 29.3453,25.966 C 28.1812,25.966 26.4156,25.22 25.8805,22.349 C 25.5484,20.556 25.5484,17.806 25.5484,16.044 C 25.5484,14.13 25.5484,12.157 25.7906,10.544 C 26.357,6.98599 28.5992,6.71999 29.3453,6.71999 C 30.3336,6.71999 32.3062,7.25499 32.8727,10.216 C 33.1734,11.888 33.1734,14.161 33.1734,16.044 C 33.1734,18.286 33.1734,20.318 32.8414,22.232 C 32.3961,25.068 30.6891,25.966 29.3453,25.966 z"
       id="path14"
       style="fill:#000000;fill-rule:evenodd;stroke:none" />
    <path
       d="M 0.9,32.161 L 42.7867,32.161 L 42.7867,0.899994 L 0.9,0.899994 L 0.9,32.161 z"
       id="path16"
       style="fill:none;stroke:#000000;stroke-width:1.79999995;stroke-linejoin:round" />
    <path
       d="M 20.6539,64.404 C 20.6539,62.009 20.5016,59.618 19.4586,57.407 C 18.0836,54.54 15.6305,54.06 14.3766,54.06 C 12.5836,54.06 10.4,54.837 9.17735,57.618 C 8.22032,59.681 8.06797,62.009 8.06797,64.404 C 8.06797,66.642 8.18907,69.333 9.41563,71.607 C 10.7008,74.025 12.8805,74.622 14.3453,74.622 C 15.9586,74.622 18.232,73.997 19.5484,71.157 C 20.5016,69.095 20.6539,66.763 20.6539,64.404 z M 14.3453,73.966 C 13.1812,73.966 11.4156,73.22 10.8805,70.349 C 10.5484,68.556 10.5484,65.806 10.5484,64.044 C 10.5484,62.13 10.5484,60.157 10.7906,58.544 C 11.357,54.986 13.5992,54.72 14.3453,54.72 C 15.3336,54.72 17.3062,55.255 17.8727,58.216 C 18.1734,59.888 18.1734,62.161 18.1734,64.044 C 18.1734,66.286 18.1734,68.318 17.8414,70.232 C 17.3961,73.068 15.6891,73.966 14.3453,73.966 z M 30.6891,54.837 C 30.6891,54.122 30.6891,54.06 30.0055,54.06 C 28.15,55.974 25.5211,55.974 24.5641,55.974 L 24.5641,56.9 C 25.1617,56.9 26.9234,56.9 28.4781,56.122 L 28.4781,71.607 C 28.4781,72.681 28.3883,73.04 25.7008,73.04 L 24.7437,73.04 L 24.7437,73.966 C 25.7906,73.876 28.3883,73.876 29.5836,73.876 C 30.7789,73.876 33.3805,73.876 34.4273,73.966 L 34.4273,73.04 L 33.4703,73.04 C 30.7789,73.04 30.6891,72.712 30.6891,71.607 L 30.6891,54.837 z"
       id="path18"
       style="fill:#000000;fill-rule:evenodd;stroke:none" />
    <path
       d="M 0.9,80.4308 L 42.7867,80.4308 L 42.7867,49.169 L 0.9,49.169 L 0.9,80.4308 z"
       id="path20"
       style="fill:none;stroke:#000000;stroke-width:1.79999995;stroke-linejoin:round" />
    <path
       d="M 15.6891,103.837 C 15.6891,103.122 15.6891,103.06 15.0055,103.06 C 13.15,104.974 10.5211,104.974 9.56407,104.974 L 9.56407,105.9 C 10.1617,105.9 11.9234,105.9 13.4781,105.122 L 13.4781,120.607 C 13.4781,121.681 13.3883,122.04 10.7008,122.04 L 9.74375,122.04 L 9.74375,122.966 C 10.7906,122.876 13.3883,122.876 14.5836,122.876 C 15.7789,122.876 18.3805,122.876 19.4273,122.966 L 19.4273,122.04 L 18.4703,122.04 C 15.7789,122.04 15.6891,121.712 15.6891,120.607 L 15.6891,103.837 z M 35.6539,113.403 C 35.6539,111.009 35.5016,108.618 34.4586,106.407 C 33.0836,103.54 30.6305,103.06 29.3766,103.06 C 27.5836,103.06 25.4,103.837 24.1773,106.618 C 23.2203,108.681 23.068,111.009 23.068,113.403 C 23.068,115.642 23.1891,118.333 24.4156,120.607 C 25.7008,123.025 27.8805,123.622 29.3453,123.622 C 30.9586,123.622 33.232,122.997 34.5484,120.157 C 35.5016,118.095 35.6539,115.763 35.6539,113.403 z M 29.3453,122.966 C 28.1812,122.966 26.4156,122.22 25.8805,119.349 C 25.5484,117.556 25.5484,114.806 25.5484,113.044 C 25.5484,111.13 25.5484,109.157 25.7906,107.544 C 26.357,103.985 28.5992,103.72 29.3453,103.72 C 30.3336,103.72 32.3062,104.255 32.8727,107.216 C 33.1734,108.888 33.1734,111.161 33.1734,113.044 C 33.1734,115.286 33.1734,117.318 32.8414,119.232 C 32.3961,122.068 30.6891,122.966 29.3453,122.966 z"
       id="path22"
       style="fill:#000000;fill-rule:evenodd;stroke:none" />
    <path
       d="M 0.9,128.7 L 42.7867,128.7 L 42.7867,97.4387 L 0.9,97.4387 L 0.9,128.7 z"
       id="path24"
       style="fill:none;stroke:#000000;stroke-width:1.79999995;stroke-linejoin:round" />
    <path
       d="M 15.6891,151.837 C 15.6891,151.122 15.6891,151.06 15.0055,151.06 C 13.15,152.974 10.5211,152.974 9.56407,152.974 L 9.56407,153.9 C 10.1617,153.9 11.9234,153.9 13.4781,153.122 L 13.4781,168.607 C 13.4781,169.681 13.3883,170.04 10.7008,170.04 L 9.74375,170.04 L 9.74375,170.966 C 10.7906,170.876 13.3883,170.876 14.5836,170.876 C 15.7789,170.876 18.3805,170.876 19.4273,170.966 L 19.4273,170.04 L 18.4703,170.04 C 15.7789,170.04 15.6891,169.712 15.6891,168.607 L 15.6891,151.837 z M 30.6891,151.837 C 30.6891,151.122 30.6891,151.06 30.0055,151.06 C 28.15,152.974 25.5211,152.974 24.5641,152.974 L 24.5641,153.9 C 25.1617,153.9 26.9234,153.9 28.4781,153.122 L 28.4781,168.607 C 28.4781,169.681 28.3883,170.04 25.7008,170.04 L 24.7437,170.04 L 24.7437,170.966 C 25.7906,170.876 28.3883,170.876 29.5836,170.876 C 30.7789,170.876 33.3805,170.876 34.4273,170.966 L 34.4273,170.04 L 33.4703,170.04 C 30.7789,170.04 30.6891,169.712 30.6891,168.607 L 30.6891,151.837 z"
       id="path26"
       style="fill:#000000;fill-rule:evenodd;stroke:none" />
    <path
       d="M 0.9,176.97 L 42.7867,176.97 L 42.7867,145.708 L 0.9,145.708 L 0.9,176.97 z"
       id="path28"
       style="fill:none;stroke:#000000;stroke-width:1.79999995;stroke-linejoin:round" />
    <path
       d="M 147.654,16.404 C 147.654,14.009 147.502,11.618 146.459,9.40698 C 145.084,6.53999 142.631,6.05998 141.377,6.05998 C 139.584,6.05998 137.4,6.83699 136.177,9.61798 C 135.22,11.681 135.068,14.009 135.068,16.404 C 135.068,18.642 135.189,21.333 136.416,23.607 C 137.701,26.025 139.881,26.622 141.345,26.622 C 142.959,26.622 145.232,25.997 146.549,23.157 C 147.502,21.095 147.654,18.763 147.654,16.404 z M 141.345,25.966 C 140.181,25.966 138.416,25.22 137.881,22.349 C 137.549,20.556 137.549,17.806 137.549,16.044 C 137.549,14.13 137.549,12.157 137.791,10.544 C 138.357,6.98599 140.599,6.71999 141.345,6.71999 C 142.334,6.71999 144.306,7.25499 144.873,10.216 C 145.174,11.888 145.174,14.161 145.174,16.044 C 145.174,18.286 145.174,20.318 144.842,22.232 C 144.396,25.068 142.689,25.966 141.345,25.966 z M 162.654,16.404 C 162.654,14.009 162.502,11.618 161.459,9.40698 C 160.084,6.53999 157.631,6.05998 156.377,6.05998 C 154.584,6.05998 152.4,6.83699 151.177,9.61798 C 150.22,11.681 150.068,14.009 150.068,16.404 C 150.068,18.642 150.189,21.333 151.416,23.607 C 152.701,26.025 154.881,26.622 156.345,26.622 C 157.959,26.622 160.232,25.997 161.549,23.157 C 162.502,21.095 162.654,18.763 162.654,16.404 z M 156.345,25.966 C 155.181,25.966 153.416,25.22 152.881,22.349 C 152.549,20.556 152.549,17.806 152.549,16.044 C 152.549,14.13 152.549,12.157 152.791,10.544 C 153.357,6.98599 155.599,6.71999 156.345,6.71999 C 157.334,6.71999 159.306,7.25499 159.873,10.216 C 160.174,11.888 160.174,14.161 160.174,16.044 C 160.174,18.286 160.174,20.318 159.842,22.232 C 159.396,25.068 157.689,25.966 156.345,25.966 z"
       id="path30"
       style="fill:#000000;fill-rule:evenodd;stroke:none" />
    <path
       d="M 127.826,32.161 L 169.716,32.161 L 169.716,0.899994 L 127.826,0.899994 L 127.826,32.161 z"
       id="path32"
       style="fill:none;stroke:#000000;stroke-width:1.79999995;stroke-linejoin:round" />
    <path
       d="M 147.654,64.404 C 147.654,62.009 147.502,59.618 146.459,57.407 C 145.084,54.54 142.631,54.06 141.377,54.06 C 139.584,54.06 137.4,54.837 136.177,57.618 C 135.22,59.681 135.068,62.009 135.068,64.404 C 135.068,66.642 135.189,69.333 136.416,71.607 C 137.701,74.025 139.881,74.622 141.345,74.622 C 142.959,74.622 145.232,73.997 146.549,71.157 C 147.502,69.095 147.654,66.763 147.654,64.404 z M 141.345,73.966 C 140.181,73.966 138.416,73.22 137.881,70.349 C 137.549,68.556 137.549,65.806 137.549,64.044 C 137.549,62.13 137.549,60.157 137.791,58.544 C 138.357,54.986 140.599,54.72 141.345,54.72 C 142.334,54.72 144.306,55.255 144.873,58.216 C 145.174,59.888 145.174,62.161 145.174,64.044 C 145.174,66.286 145.174,68.318 144.842,70.232 C 144.396,73.068 142.689,73.966 141.345,73.966 z M 157.689,54.837 C 157.689,54.122 157.689,54.06 157.006,54.06 C 155.15,55.974 152.521,55.974 151.564,55.974 L 151.564,56.9 C 152.162,56.9 153.924,56.9 155.478,56.122 L 155.478,71.607 C 155.478,72.681 155.388,73.04 152.701,73.04 L 151.744,73.04 L 151.744,73.966 C 152.791,73.876 155.388,73.876 156.584,73.876 C 157.779,73.876 160.381,73.876 161.427,73.966 L 161.427,73.04 L 160.47,73.04 C 157.779,73.04 157.689,72.712 157.689,71.607 L 157.689,54.837 z"
       id="path34"
       style="fill:#000000;fill-rule:evenodd;stroke:none" />
    <path
       d="M 127.826,80.4308 L 169.716,80.4308 L 169.716,49.169 L 127.826,49.169 L 127.826,80.4308 z"
       id="path36"
       style="fill:none;stroke:#000000;stroke-width:1.79999995;stroke-linejoin:round" />
    <path
       d="M 142.689,103.837 C 142.689,103.122 142.689,103.06 142.006,103.06 C 140.15,104.974 137.521,104.974 136.564,104.974 L 136.564,105.9 C 137.162,105.9 138.924,105.9 140.478,105.122 L 140.478,120.607 C 140.478,121.681 140.388,122.04 137.701,122.04 L 136.744,122.04 L 136.744,122.966 C 137.791,122.876 140.388,122.876 141.584,122.876 C 142.779,122.876 145.381,122.876 146.427,122.966 L 146.427,122.04 L 145.47,122.04 C 142.779,122.04 142.689,121.712 142.689,120.607 L 142.689,103.837 z M 162.654,113.403 C 162.654,111.009 162.502,108.618 161.459,106.407 C 160.084,103.54 157.631,103.06 156.377,103.06 C 154.584,103.06 152.4,103.837 151.177,106.618 C 150.22,108.681 150.068,111.009 150.068,113.403 C 150.068,115.642 150.189,118.333 151.416,120.607 C 152.701,123.025 154.881,123.622 156.345,123.622 C 157.959,123.622 160.232,122.997 161.549,120.157 C 162.502,118.095 162.654,115.763 162.654,113.403 z M 156.345,122.966 C 155.181,122.966 153.416,122.22 152.881,119.349 C 152.549,117.556 152.549,114.806 152.549,113.044 C 152.549,111.13 152.549,109.157 152.791,107.544 C 153.357,103.985 155.599,103.72 156.345,103.72 C 157.334,103.72 159.306,104.255 159.873,107.216 C 160.174,108.888 160.174,111.161 160.174,113.044 C 160.174,115.286 160.174,117.318 159.842,119.232 C 159.396,122.068 157.689,122.966 156.345,122.966 z"
       id="path38"
       style="fill:#000000;fill-rule:evenodd;stroke:none" />
    <path
       d="M 127.826,128.7 L 169.716,128.7 L 169.716,97.4387 L 127.826,97.4387 L 127.826,128.7 z"
       id="path40"
       style="fill:none;stroke:#000000;stroke-width:1.79999995;stroke-linejoin:round" />
    <path
       d="M 142.689,151.837 C 142.689,151.122 142.689,151.06 142.006,151.06 C 140.15,152.974 137.521,152.974 136.564,152.974 L 136.564,153.9 C 137.162,153.9 138.924,153.9 140.478,153.122 L 140.478,168.607 C 140.478,169.681 140.388,170.04 137.701,170.04 L 136.744,170.04 L 136.744,170.966 C 137.791,170.876 140.388,170.876 141.584,170.876 C 142.779,170.876 145.381,170.876 146.427,170.966 L 146.427,170.04 L 145.47,170.04 C 142.779,170.04 142.689,169.712 142.689,168.607 L 142.689,151.837 z M 157.689,151.837 C 157.689,151.122 157.689,151.06 157.006,151.06 C 155.15,152.974 152.521,152.974 151.564,152.974 L 151.564,153.9 C 152.162,153.9 153.924,153.9 155.478,153.122 L 155.478,168.607 C 155.478,169.681 155.388,170.04 152.701,170.04 L 151.744,170.04 L 151.744,170.966 C 152.791,170.876 155.388,170.876 156.584,170.876 C 157.779,170.876 160.381,170.876 161.427,170.966 L 161.427,170.04 L 160.47,170.04 C 157.779,170.04 157.689,169.712 157.689,168.607 L 157.689,151.837 z"
       id="path42"
       style="fill:#000000;fill-rule:evenodd;stroke:none" />
    <path
       d="M 127.826,176.97 L 169.716,176.97 L 169.716,145.708 L 127.826,145.708 L 127.826,176.97 z"
       id="path44"
       style="fill:none;stroke:#000000;stroke-width:1.79999995;stroke-linejoin:round" />
    <path
       d="M 274.654,16.404 C 274.654,14.009 274.502,11.618 273.459,9.40698 C 272.084,6.53999 269.631,6.05998 268.377,6.05998 C 266.584,6.05998 264.4,6.83699 263.177,9.61798 C 262.22,11.681 262.068,14.009 262.068,16.404 C 262.068,18.642 262.189,21.333 263.416,23.607 C 264.701,26.025 266.881,26.622 268.345,26.622 C 269.959,26.622 272.232,25.997 273.549,23.157 C 274.502,21.095 274.654,18.763 274.654,16.404 z M 268.345,25.966 C 267.181,25.966 265.416,25.22 264.881,22.349 C 264.549,20.556 264.549,17.806 264.549,16.044 C 264.549,14.13 264.549,12.157 264.791,10.544 C 265.357,6.98599 267.599,6.71999 268.345,6.71999 C 269.334,6.71999 271.306,7.25499 271.873,10.216 C 272.174,11.888 272.174,14.161 272.174,16.044 C 272.174,18.286 272.174,20.318 271.842,22.232 C 271.396,25.068 269.689,25.966 268.345,25.966 z M 289.654,16.404 C 289.654,14.009 289.502,11.618 288.459,9.40698 C 287.084,6.53999 284.631,6.05998 283.377,6.05998 C 281.584,6.05998 279.4,6.83699 278.177,9.61798 C 277.22,11.681 277.068,14.009 277.068,16.404 C 277.068,18.642 277.189,21.333 278.416,23.607 C 279.701,26.025 281.881,26.622 283.345,26.622 C 284.959,26.622 287.232,25.997 288.549,23.157 C 289.502,21.095 289.654,18.763 289.654,16.404 z M 283.345,25.966 C 282.181,25.966 280.416,25.22 279.881,22.349 C 279.549,20.556 279.549,17.806 279.549,16.044 C 279.549,14.13 279.549,12.157 279.791,10.544 C 280.357,6.98599 282.599,6.71999 283.345,6.71999 C 284.334,6.71999 286.306,7.25499 286.873,10.216 C 287.174,11.888 287.174,14.161 287.174,16.044 C 287.174,18.286 287.174,20.318 286.842,22.232 C 286.396,25.068 284.689,25.966 283.345,25.966 z"
       id="path46"
       style="fill:#000000;fill-rule:evenodd;stroke:none" />
    <path
       d="M 254.756,32.161 L 296.642,32.161 L 296.642,0.899994 L 254.756,0.899994 L 254.756,32.161 z"
       id="path48"
       style="fill:none;stroke:#000000;stroke-width:1.79999995;stroke-linejoin:round" />
    <path
       d="M 274.654,64.404 C 274.654,62.009 274.502,59.618 273.459,57.407 C 272.084,54.54 269.631,54.06 268.377,54.06 C 266.584,54.06 264.4,54.837 263.177,57.618 C 262.22,59.681 262.068,62.009 262.068,64.404 C 262.068,66.642 262.189,69.333 263.416,71.607 C 264.701,74.025 266.881,74.622 268.345,74.622 C 269.959,74.622 272.232,73.997 273.549,71.157 C 274.502,69.095 274.654,66.763 274.654,64.404 z M 268.345,73.966 C 267.181,73.966 265.416,73.22 264.881,70.349 C 264.549,68.556 264.549,65.806 264.549,64.044 C 264.549,62.13 264.549,60.157 264.791,58.544 C 265.357,54.986 267.599,54.72 268.345,54.72 C 269.334,54.72 271.306,55.255 271.873,58.216 C 272.174,59.888 272.174,62.161 272.174,64.044 C 272.174,66.286 272.174,68.318 271.842,70.232 C 271.396,73.068 269.689,73.966 268.345,73.966 z M 284.689,54.837 C 284.689,54.122 284.689,54.06 284.006,54.06 C 282.15,55.974 279.521,55.974 278.564,55.974 L 278.564,56.9 C 279.162,56.9 280.924,56.9 282.478,56.122 L 282.478,71.607 C 282.478,72.681 282.388,73.04 279.701,73.04 L 278.744,73.04 L 278.744,73.966 C 279.791,73.876 282.388,73.876 283.584,73.876 C 284.779,73.876 287.381,73.876 288.427,73.966 L 288.427,73.04 L 287.47,73.04 C 284.779,73.04 284.689,72.712 284.689,71.607 L 284.689,54.837 z"
       id="path50"
       style="fill:#000000;fill-rule:evenodd;stroke:none" />
    <path
       d="M 254.756,80.4308 L 296.642,80.4308 L 296.642,49.169 L 254.756,49.169 L 254.756,80.4308 z"
       id="path52"
       style="fill:none;stroke:#000000;stroke-width:1.79999995;stroke-linejoin:round" />
    <path
       d="M 269.689,103.837 C 269.689,103.122 269.689,103.06 269.006,103.06 C 267.15,104.974 264.521,104.974 263.564,104.974 L 263.564,105.9 C 264.162,105.9 265.924,105.9 267.478,105.122 L 267.478,120.607 C 267.478,121.681 267.388,122.04 264.701,122.04 L 263.744,122.04 L 263.744,122.966 C 264.791,122.876 267.388,122.876 268.584,122.876 C 269.779,122.876 272.381,122.876 273.427,122.966 L 273.427,122.04 L 272.47,122.04 C 269.779,122.04 269.689,121.712 269.689,120.607 L 269.689,103.837 z M 289.654,113.403 C 289.654,111.009 289.502,108.618 288.459,106.407 C 287.084,103.54 284.631,103.06 283.377,103.06 C 281.584,103.06 279.4,103.837 278.177,106.618 C 277.22,108.681 277.068,111.009 277.068,113.403 C 277.068,115.642 277.189,118.333 278.416,120.607 C 279.701,123.025 281.881,123.622 283.345,123.622 C 284.959,123.622 287.232,122.997 288.549,120.157 C 289.502,118.095 289.654,115.763 289.654,113.403 z M 283.345,122.966 C 282.181,122.966 280.416,122.22 279.881,119.349 C 279.549,117.556 279.549,114.806 279.549,113.044 C 279.549,111.13 279.549,109.157 279.791,107.544 C 280.357,103.985 282.599,103.72 283.345,103.72 C 284.334,103.72 286.306,104.255 286.873,107.216 C 287.174,108.888 287.174,111.161 287.174,113.044 C 287.174,115.286 287.174,117.318 286.842,119.232 C 286.396,122.068 284.689,122.966 283.345,122.966 z"
       id="path54"
       style="fill:#000000;fill-rule:evenodd;stroke:none" />
    <path
       d="M 254.756,128.7 L 296.642,128.7 L 296.642,97.4387 L 254.756,97.4387 L 254.756,128.7 z"
       id="path56"
       style="fill:none;stroke:#000000;stroke-width:1.79999995;stroke-linejoin:round" />
    <path
       d="M 269.689,151.837 C 269.689,151.122 269.689,151.06 269.006,151.06 C 267.15,152.974 264.521,152.974 263.564,152.974 L 263.564,153.9 C 264.162,153.9 265.924,153.9 267.478,153.122 L 267.478,168.607 C 267.478,169.681 267.388,170.04 264.701,170.04 L 263.744,170.04 L 263.744,170.966 C 264.791,170.876 267.388,170.876 268.584,170.876 C 269.779,170.876 272.381,170.876 273.427,170.966 L 273.427,170.04 L 272.47,170.04 C 269.779,170.04 269.689,169.712 269.689,168.607 L 269.689,151.837 z M 284.689,151.837 C 284.689,151.122 284.689,151.06 284.006,151.06 C 282.15,152.974 279.521,152.974 278.564,152.974 L 278.564,153.9 C 279.162,153.9 280.924,153.9 282.478,153.122 L 282.478,168.607 C 282.478,169.681 282.388,170.04 279.701,170.04 L 278.744,170.04 L 278.744,170.966 C 279.791,170.876 282.388,170.876 283.584,170.876 C 284.779,170.876 287.381,170.876 288.427,170.966 L 288.427,170.04 L 287.47,170.04 C 284.779,170.04 284.689,169.712 284.689,168.607 L 284.689,151.837 z"
       id="path58"
       style="fill:#000000;fill-rule:evenodd;stroke:none" />
    <path
       d="M 254.756,176.97 L 296.642,176.97 L 296.642,145.708 L 254.756,145.708 L 254.756,176.97 z"
       id="path60"
       style="fill:none;stroke:#000000;stroke-width:1.79999995;stroke-linejoin:round" />
    <path
       d="M 401.654,16.404 C 401.654,14.009 401.502,11.618 400.459,9.40698 C 399.084,6.53999 396.631,6.05998 395.377,6.05998 C 393.584,6.05998 391.4,6.83699 390.177,9.61798 C 389.22,11.681 389.068,14.009 389.068,16.404 C 389.068,18.642 389.189,21.333 390.416,23.607 C 391.701,26.025 393.881,26.622 395.345,26.622 C 396.959,26.622 399.232,25.997 400.549,23.157 C 401.502,21.095 401.654,18.763 401.654,16.404 z M 395.345,25.966 C 394.181,25.966 392.416,25.22 391.881,22.349 C 391.549,20.556 391.549,17.806 391.549,16.044 C 391.549,14.13 391.549,12.157 391.791,10.544 C 392.357,6.98599 394.599,6.71999 395.345,6.71999 C 396.334,6.71999 398.306,7.25499 398.873,10.216 C 399.174,11.888 399.174,14.161 399.174,16.044 C 399.174,18.286 399.174,20.318 398.842,22.232 C 398.396,25.068 396.689,25.966 395.345,25.966 z M 416.654,16.404 C 416.654,14.009 416.502,11.618 415.459,9.40698 C 414.084,6.53999 411.631,6.05998 410.377,6.05998 C 408.584,6.05998 406.4,6.83699 405.177,9.61798 C 404.22,11.681 404.068,14.009 404.068,16.404 C 404.068,18.642 404.189,21.333 405.416,23.607 C 406.701,26.025 408.881,26.622 410.345,26.622 C 411.959,26.622 414.232,25.997 415.549,23.157 C 416.502,21.095 416.654,18.763 416.654,16.404 z M 410.345,25.966 C 409.181,25.966 407.416,25.22 406.881,22.349 C 406.549,20.556 406.549,17.806 406.549,16.044 C 406.549,14.13 406.549,12.157 406.791,10.544 C 407.357,6.98599 409.599,6.71999 410.345,6.71999 C 411.334,6.71999 413.306,7.25499 413.873,10.216 C 414.174,11.888 414.174,14.161 414.174,16.044 C 414.174,18.286 414.174,20.318 413.842,22.232 C 413.396,25.068 411.689,25.966 410.345,25.966 z"
       id="path62"
       style="fill:#000000;fill-rule:evenodd;stroke:none" />
    <path
       d="M 381.681,32.161 L 423.572,32.161 L 423.572,0.899994 L 381.681,0.899994 L 381.681,32.161 z"
       id="path64"
       style="fill:none;stroke:#000000;stroke-width:1.79999995;stroke-linejoin:round" />
    <path
       d="M 401.654,64.404 C 401.654,62.009 401.502,59.618 400.459,57.407 C 399.084,54.54 396.631,54.06 395.377,54.06 C 393.584,54.06 391.4,54.837 390.177,57.618 C 389.22,59.681 389.068,62.009 389.068,64.404 C 389.068,66.642 389.189,69.333 390.416,71.607 C 391.701,74.025 393.881,74.622 395.345,74.622 C 396.959,74.622 399.232,73.997 400.549,71.157 C 401.502,69.095 401.654,66.763 401.654,64.404 z M 395.345,73.966 C 394.181,73.966 392.416,73.22 391.881,70.349 C 391.549,68.556 391.549,65.806 391.549,64.044 C 391.549,62.13 391.549,60.157 391.791,58.544 C 392.357,54.986 394.599,54.72 395.345,54.72 C 396.334,54.72 398.306,55.255 398.873,58.216 C 399.174,59.888 399.174,62.161 399.174,64.044 C 399.174,66.286 399.174,68.318 398.842,70.232 C 398.396,73.068 396.689,73.966 395.345,73.966 z M 411.689,54.837 C 411.689,54.122 411.689,54.06 411.006,54.06 C 409.15,55.974 406.521,55.974 405.564,55.974 L 405.564,56.9 C 406.162,56.9 407.924,56.9 409.478,56.122 L 409.478,71.607 C 409.478,72.681 409.388,73.04 406.701,73.04 L 405.744,73.04 L 405.744,73.966 C 406.791,73.876 409.388,73.876 410.584,73.876 C 411.779,73.876 414.381,73.876 415.427,73.966 L 415.427,73.04 L 414.47,73.04 C 411.779,73.04 411.689,72.712 411.689,71.607 L 411.689,54.837 z"
       id="path66"
       style="fill:#000000;fill-rule:evenodd;stroke:none" />
    <path
       d="M 381.681,80.4308 L 423.572,80.4308 L 423.572,49.169 L 381.681,49.169 L 381.681,80.4308 z"
       id="path68"
       style="fill:none;stroke:#000000;stroke-width:1.79999995;stroke-linejoin:round" />
    <path
       d="M 396.689,103.837 C 396.689,103.122 396.689,103.06 396.006,103.06 C 394.15,104.974 391.521,104.974 390.564,104.974 L 390.564,105.9 C 391.162,105.9 392.924,105.9 394.478,105.122 L 394.478,120.607 C 394.478,121.681 394.388,122.04 391.701,122.04 L 390.744,122.04 L 390.744,122.966 C 391.791,122.876 394.388,122.876 395.584,122.876 C 396.779,122.876 399.381,122.876 400.427,122.966 L 400.427,122.04 L 399.47,122.04 C 396.779,122.04 396.689,121.712 396.689,120.607 L 396.689,103.837 z M 416.654,113.403 C 416.654,111.009 416.502,108.618 415.459,106.407 C 414.084,103.54 411.631,103.06 410.377,103.06 C 408.584,103.06 406.4,103.837 405.177,106.618 C 404.22,108.681 404.068,111.009 404.068,113.403 C 404.068,115.642 404.189,118.333 405.416,120.607 C 406.701,123.025 408.881,123.622 410.345,123.622 C 411.959,123.622 414.232,122.997 415.549,120.157 C 416.502,118.095 416.654,115.763 416.654,113.403 z M 410.345,122.966 C 409.181,122.966 407.416,122.22 406.881,119.349 C 406.549,117.556 406.549,114.806 406.549,113.044 C 406.549,111.13 406.549,109.157 406.791,107.544 C 407.357,103.985 409.599,103.72 410.345,103.72 C 411.334,103.72 413.306,104.255 413.873,107.216 C 414.174,108.888 414.174,111.161 414.174,113.044 C 414.174,115.286 414.174,117.318 413.842,119.232 C 413.396,122.068 411.689,122.966 410.345,122.966 z"
       id="path70"
       style="fill:#000000;fill-rule:evenodd;stroke:none" />
    <path
       d="M 381.681,128.7 L 423.572,128.7 L 423.572,97.4387 L 381.681,97.4387 L 381.681,128.7 z"
       id="path72"
       style="fill:none;stroke:#000000;stroke-width:1.79999995;stroke-linejoin:round" />
    <path
       d="M 396.689,151.837 C 396.689,151.122 396.689,151.06 396.006,151.06 C 394.15,152.974 391.521,152.974 390.564,152.974 L 390.564,153.9 C 391.162,153.9 392.924,153.9 394.478,153.122 L 394.478,168.607 C 394.478,169.681 394.388,170.04 391.701,170.04 L 390.744,170.04 L 390.744,170.966 C 391.791,170.876 394.388,170.876 395.584,170.876 C 396.779,170.876 399.381,170.876 400.427,170.966 L 400.427,170.04 L 399.47,170.04 C 396.779,170.04 396.689,169.712 396.689,168.607 L 396.689,151.837 z M 411.689,151.837 C 411.689,151.122 411.689,151.06 411.006,151.06 C 409.15,152.974 406.521,152.974 405.564,152.974 L 405.564,153.9 C 406.162,153.9 407.924,153.9 409.478,153.122 L 409.478,168.607 C 409.478,169.681 409.388,170.04 406.701,170.04 L 405.744,170.04 L 405.744,170.966 C 406.791,170.876 409.388,170.876 410.584,170.876 C 411.779,170.876 414.381,170.876 415.427,170.966 L 415.427,170.04 L 414.47,170.04 C 411.779,170.04 411.689,169.712 411.689,168.607 L 411.689,151.837 z"
       id="path74"
       style="fill:#000000;fill-rule:evenodd;stroke:none" />
    <path
       d="M 381.681,176.97 L 423.572,176.97 L 423.572,145.708 L 381.681,145.708 L 381.681,176.97 z"
       id="path76"
       style="fill:none;stroke:#000000;stroke-width:1.79999995;stroke-linejoin:round" />
    <path
       d="M 528.654,16.404 C 528.654,14.009 528.502,11.618 527.459,9.40698 C 526.084,6.53999 523.631,6.05998 522.377,6.05998 C 520.584,6.05998 518.4,6.83699 517.177,9.61798 C 516.22,11.681 516.068,14.009 516.068,16.404 C 516.068,18.642 516.189,21.333 517.416,23.607 C 518.701,26.025 520.881,26.622 522.345,26.622 C 523.959,26.622 526.232,25.997 527.549,23.157 C 528.502,21.095 528.654,18.763 528.654,16.404 z M 522.345,25.966 C 521.181,25.966 519.416,25.22 518.881,22.349 C 518.549,20.556 518.549,17.806 518.549,16.044 C 518.549,14.13 518.549,12.157 518.791,10.544 C 519.357,6.98599 521.599,6.71999 522.345,6.71999 C 523.334,6.71999 525.306,7.25499 525.873,10.216 C 526.174,11.888 526.174,14.161 526.174,16.044 C 526.174,18.286 526.174,20.318 525.842,22.232 C 525.396,25.068 523.689,25.966 522.345,25.966 z M 543.654,16.404 C 543.654,14.009 543.502,11.618 542.459,9.40698 C 541.084,6.53999 538.631,6.05998 537.377,6.05998 C 535.584,6.05998 533.4,6.83699 532.177,9.61798 C 531.22,11.681 531.068,14.009 531.068,16.404 C 531.068,18.642 531.189,21.333 532.416,23.607 C 533.701,26.025 535.881,26.622 537.345,26.622 C 538.959,26.622 541.232,25.997 542.549,23.157 C 543.502,21.095 543.654,18.763 543.654,16.404 z M 537.345,25.966 C 536.181,25.966 534.416,25.22 533.881,22.349 C 533.549,20.556 533.549,17.806 533.549,16.044 C 533.549,14.13 533.549,12.157 533.791,10.544 C 534.357,6.98599 536.599,6.71999 537.345,6.71999 C 538.334,6.71999 540.306,7.25499 540.873,10.216 C 541.174,11.888 541.174,14.161 541.174,16.044 C 541.174,18.286 541.174,20.318 540.842,22.232 C 540.396,25.068 538.689,25.966 537.345,25.966 z"
       id="path78"
       style="fill:#000000;fill-rule:evenodd;stroke:none" />
    <path
       d="M 508.611,32.161 L 550.498,32.161 L 550.498,0.899994 L 508.611,0.899994 L 508.611,32.161 z"
       id="path80"
       style="fill:none;stroke:#000000;stroke-width:1.79999995;stroke-linejoin:round" />
    <path
       d="M 528.654,64.404 C 528.654,62.009 528.502,59.618 527.459,57.407 C 526.084,54.54 523.631,54.06 522.377,54.06 C 520.584,54.06 518.4,54.837 517.177,57.618 C 516.22,59.681 516.068,62.009 516.068,64.404 C 516.068,66.642 516.189,69.333 517.416,71.607 C 518.701,74.025 520.881,74.622 522.345,74.622 C 523.959,74.622 526.232,73.997 527.549,71.157 C 528.502,69.095 528.654,66.763 528.654,64.404 z M 522.345,73.966 C 521.181,73.966 519.416,73.22 518.881,70.349 C 518.549,68.556 518.549,65.806 518.549,64.044 C 518.549,62.13 518.549,60.157 518.791,58.544 C 519.357,54.986 521.599,54.72 522.345,54.72 C 523.334,54.72 525.306,55.255 525.873,58.216 C 526.174,59.888 526.174,62.161 526.174,64.044 C 526.174,66.286 526.174,68.318 525.842,70.232 C 525.396,73.068 523.689,73.966 522.345,73.966 z M 538.689,54.837 C 538.689,54.122 538.689,54.06 538.006,54.06 C 536.15,55.974 533.521,55.974 532.564,55.974 L 532.564,56.9 C 533.162,56.9 534.924,56.9 536.478,56.122 L 536.478,71.607 C 536.478,72.681 536.388,73.04 533.701,73.04 L 532.744,73.04 L 532.744,73.966 C 533.791,73.876 536.388,73.876 537.584,73.876 C 538.779,73.876 541.381,73.876 542.427,73.966 L 542.427,73.04 L 541.47,73.04 C 538.779,73.04 538.689,72.712 538.689,71.607 L 538.689,54.837 z"
       id="path82"
       style="fill:#000000;fill-rule:evenodd;stroke:none" />
    <path
       d="M 508.611,80.4308 L 550.498,80.4308 L 550.498,49.169 L 508.611,49.169 L 508.611,80.4308 z"
       id="path84"
       style="fill:none;stroke:#000000;stroke-width:1.79999995;stroke-linejoin:round" />
    <path
       d="M 523.689,103.837 C 523.689,103.122 523.689,103.06 523.006,103.06 C 521.15,104.974 518.521,104.974 517.564,104.974 L 517.564,105.9 C 518.162,105.9 519.924,105.9 521.478,105.122 L 521.478,120.607 C 521.478,121.681 521.388,122.04 518.701,122.04 L 517.744,122.04 L 517.744,122.966 C 518.791,122.876 521.388,122.876 522.584,122.876 C 523.779,122.876 526.381,122.876 527.427,122.966 L 527.427,122.04 L 526.47,122.04 C 523.779,122.04 523.689,121.712 523.689,120.607 L 523.689,103.837 z M 543.654,113.403 C 543.654,111.009 543.502,108.618 542.459,106.407 C 541.084,103.54 538.631,103.06 537.377,103.06 C 535.584,103.06 533.4,103.837 532.177,106.618 C 531.22,108.681 531.068,111.009 531.068,113.403 C 531.068,115.642 531.189,118.333 532.416,120.607 C 533.701,123.025 535.881,123.622 537.345,123.622 C 538.959,123.622 541.232,122.997 542.549,120.157 C 543.502,118.095 543.654,115.763 543.654,113.403 z M 537.345,122.966 C 536.181,122.966 534.416,122.22 533.881,119.349 C 533.549,117.556 533.549,114.806 533.549,113.044 C 533.549,111.13 533.549,109.157 533.791,107.544 C 534.357,103.985 536.599,103.72 537.345,103.72 C 538.334,103.72 540.306,104.255 540.873,107.216 C 541.174,108.888 541.174,111.161 541.174,113.044 C 541.174,115.286 541.174,117.318 540.842,119.232 C 540.396,122.068 538.689,122.966 537.345,122.966 z"
       id="path86"
       style="fill:#000000;fill-rule:evenodd;stroke:none" />
    <path
       d="M 508.611,128.7 L 550.498,128.7 L 550.498,97.4387 L 508.611,97.4387 L 508.611,128.7 z"
       id="path88"
       style="fill:none;stroke:#000000;stroke-width:1.79999995;stroke-linejoin:round" />
    <path
       d="M 523.689,151.837 C 523.689,151.122 523.689,151.06 523.006,151.06 C 521.15,152.974 518.521,152.974 517.564,152.974 L 517.564,153.9 C 518.162,153.9 519.924,153.9 521.478,153.122 L 521.478,168.607 C 521.478,169.681 521.388,170.04 518.701,170.04 L 517.744,170.04 L 517.744,170.966 C 518.791,170.876 521.388,170.876 522.584,170.876 C 523.779,170.876 526.381,170.876 527.427,170.966 L 527.427,170.04 L 526.47,170.04 C 523.779,170.04 523.689,169.712 523.689,168.607 L 523.689,151.837 z M 538.689,151.837 C 538.689,151.122 538.689,151.06 538.006,151.06 C 536.15,152.974 533.521,152.974 532.564,152.974 L 532.564,153.9 C 533.162,153.9 534.924,153.9 536.478,153.122 L 536.478,168.607 C 536.478,169.681 536.388,170.04 533.701,170.04 L 532.744,170.04 L 532.744,170.966 C 533.791,170.876 536.388,170.876 537.584,170.876 C 538.779,170.876 541.381,170.876 542.427,170.966 L 542.427,170.04 L 541.47,170.04 C 538.779,170.04 538.689,169.712 538.689,168.607 L 538.689,151.837 z"
       id="path90"
       style="fill:#000000;fill-rule:evenodd;stroke:none" />
    <path
       d="M 508.611,176.97 L 550.498,176.97 L 550.498,145.708 L 508.611,145.708 L 508.611,176.97 z"
       id="path92"
       style="fill:none;stroke:#000000;stroke-width:1.79999995;stroke-linejoin:round" />
    <path
       d="M 42.7867,16.532 L 127.826,16.532"
       id="path94"
       style="fill:none;stroke:#ff0000;stroke-width:1.79999995;stroke-linecap:round;stroke-linejoin:round" />
    <path
       d="M 120.435,19.595 L 127.826,16.532 L 120.435,13.47"
       id="path96"
       style="fill:#ff0000;fill-rule:evenodd;stroke:none" />
    <path
       d="M 120.435,19.595 L 127.826,16.532 L 120.435,13.47 L 120.435,19.595 z"
       id="path98"
       style="fill:none;stroke:#ff0000;stroke-width:1.79999995;stroke-linecap:round;stroke-linejoin:round" />
    <path
       d="M 42.7867,64.802 L 127.826,16.532"
       id="path100"
       style="fill:none;stroke:#000000;stroke-width:1.79999995;stroke-linecap:round;stroke-linejoin:round" />
    <path
       d="M 122.912,22.845 L 127.826,16.532 L 119.888,17.517"
       id="path102"
       style="fill:#000000;fill-rule:evenodd;stroke:none" />
    <path
       d="M 122.912,22.845 L 127.826,16.532 L 119.888,17.517 L 122.912,22.845 z"
       id="path104"
       style="fill:none;stroke:#000000;stroke-width:1.79999995;stroke-linecap:round;stroke-linejoin:round" />
    <path
       d="M 42.7867,113.071 L 127.826,64.802"
       id="path106"
       style="fill:none;stroke:#000000;stroke-width:1.79999995;stroke-linecap:round;stroke-linejoin:round" />
    <path
       d="M 122.912,71.111 L 127.826,64.802 L 119.888,65.786"
       id="path108"
       style="fill:#000000;fill-rule:evenodd;stroke:none" />
    <path
       d="M 122.912,71.111 L 127.826,64.802 L 119.888,65.786 L 122.912,71.111 z"
       id="path110"
       style="fill:none;stroke:#000000;stroke-width:1.79999995;stroke-linecap:round;stroke-linejoin:round" />
    <path
       d="M 42.7867,161.341 L 127.826,64.802"
       id="path112"
       style="fill:none;stroke:#000000;stroke-width:1.79999995;stroke-linecap:round;stroke-linejoin:round" />
    <path
       d="M 125.24,72.368 L 127.826,64.802 L 120.646,68.321"
       id="path114"
       style="fill:#000000;fill-rule:evenodd;stroke:none" />
    <path
       d="M 125.24,72.368 L 127.826,64.802 L 120.646,68.321 L 125.24,72.368 z"
       id="path116"
       style="fill:none;stroke:#000000;stroke-width:1.79999995;stroke-linecap:round;stroke-linejoin:round" />
    <path
       d="M 169.716,16.532 L 254.756,16.532"
       id="path118"
       style="fill:none;stroke:#000000;stroke-width:1.79999995;stroke-linecap:round;stroke-linejoin:round" />
    <path
       d="M 247.365,19.595 L 254.756,16.532 L 247.365,13.47"
       id="path120"
       style="fill:#000000;fill-rule:evenodd;stroke:none" />
    <path
       d="M 247.365,19.595 L 254.756,16.532 L 247.365,13.47 L 247.365,19.595 z"
       id="path122"
       style="fill:none;stroke:#000000;stroke-width:1.79999995;stroke-linecap:round;stroke-linejoin:round" />
    <path
       d="M 169.716,64.802 L 254.756,16.532"
       id="path124"
       style="fill:none;stroke:#000000;stroke-width:1.79999995;stroke-linecap:round;stroke-linejoin:round" />
    <path
       d="M 249.838,22.845 L 254.756,16.532 L 246.814,17.517"
       id="path126"
       style="fill:#000000;fill-rule:evenodd;stroke:none" />
    <path
       d="M 249.838,22.845 L 254.756,16.532 L 246.814,17.517 L 249.838,22.845 z"
       id="path128"
       style="fill:none;stroke:#000000;stroke-width:1.79999995;stroke-linecap:round;stroke-linejoin:round" />
    <path
       d="M 169.716,113.071 L 254.756,64.802"
       id="path130"
       style="fill:none;stroke:#000000;stroke-width:1.79999995;stroke-linecap:round;stroke-linejoin:round" />
    <path
       d="M 249.838,71.111 L 254.756,64.802 L 246.814,65.786"
       id="path132"
       style="fill:#000000;fill-rule:evenodd;stroke:none" />
    <path
       d="M 249.838,71.111 L 254.756,64.802 L 246.814,65.786 L 249.838,71.111 z"
       id="path134"
       style="fill:none;stroke:#000000;stroke-width:1.79999995;stroke-linecap:round;stroke-linejoin:round" />
    <path
       d="M 169.716,161.341 L 254.756,64.802"
       id="path136"
       style="fill:none;stroke:#000000;stroke-width:1.79999995;stroke-linecap:round;stroke-linejoin:round" />
    <path
       d="M 252.17,72.368 L 254.756,64.802 L 247.572,68.321"
       id="path138"
       style="fill:#000000;fill-rule:evenodd;stroke:none" />
    <path
       d="M 252.17,72.368 L 254.756,64.802 L 247.572,68.321 L 252.17,72.368 z"
       id="path140"
       style="fill:none;stroke:#000000;stroke-width:1.79999995;stroke-linecap:round;stroke-linejoin:round" />
    <path
       d="M 296.642,16.532 L 381.681,16.532"
       id="path142"
       style="fill:none;stroke:#000000;stroke-width:1.79999995;stroke-linecap:round;stroke-linejoin:round" />
    <path
       d="M 374.291,19.595 L 381.681,16.532 L 374.291,13.47"
       id="path144"
       style="fill:#000000;fill-rule:evenodd;stroke:none" />
    <path
       d="M 374.291,19.595 L 381.681,16.532 L 374.291,13.47 L 374.291,19.595 z"
       id="path146"
       style="fill:none;stroke:#000000;stroke-width:1.79999995;stroke-linecap:round;stroke-linejoin:round" />
    <path
       d="M 296.642,64.802 L 381.681,16.532"
       id="path148"
       style="fill:none;stroke:#000000;stroke-width:1.79999995;stroke-linecap:round;stroke-linejoin:round" />
    <path
       d="M 376.767,22.845 L 381.681,16.532 L 373.744,17.517"
       id="path150"
       style="fill:#000000;fill-rule:evenodd;stroke:none" />
    <path
       d="M 376.767,22.845 L 381.681,16.532 L 373.744,17.517 L 376.767,22.845 z"
       id="path152"
       style="fill:none;stroke:#000000;stroke-width:1.79999995;stroke-linecap:round;stroke-linejoin:round" />
    <path
       d="M 296.642,113.071 L 381.681,64.802"
       id="path154"
       style="fill:none;stroke:#ff0000;stroke-width:1.79999995;stroke-linecap:round;stroke-linejoin:round" />
    <path
       d="M 376.767,71.111 L 381.681,64.802 L 373.744,65.786"
       id="path156"
       style="fill:#ff0000;fill-rule:evenodd;stroke:none" />
    <path
       d="M 376.767,71.111 L 381.681,64.802 L 373.744,65.786 L 376.767,71.111 z"
       id="path158"
       style="fill:none;stroke:#ff0000;stroke-width:1.79999995;stroke-linecap:round;stroke-linejoin:round" />
    <path
       d="M 296.642,161.341 L 381.681,64.802"
       id="path160"
       style="fill:none;stroke:#000000;stroke-width:1.79999995;stroke-linecap:round;stroke-linejoin:round" />
    <path
       d="M 379.095,72.368 L 381.681,64.802 L 374.502,68.321"
       id="path162"
       style="fill:#000000;fill-rule:evenodd;stroke:none" />
    <path
       d="M 379.095,72.368 L 381.681,64.802 L 374.502,68.321 L 379.095,72.368 z"
       id="path164"
       style="fill:none;stroke:#000000;stroke-width:1.79999995;stroke-linecap:round;stroke-linejoin:round" />
    <path
       d="M 423.572,16.532 L 508.611,16.532"
       id="path166"
       style="fill:none;stroke:#000000;stroke-width:1.79999995;stroke-linecap:round;stroke-linejoin:round" />
    <path
       d="M 501.216,19.595 L 508.611,16.532 L 501.216,13.47"
       id="path168"
       style="fill:#000000;fill-rule:evenodd;stroke:none" />
    <path
       d="M 501.216,19.595 L 508.611,16.532 L 501.216,13.47 L 501.216,19.595 z"
       id="path170"
       style="fill:none;stroke:#000000;stroke-width:1.79999995;stroke-linecap:round;stroke-linejoin:round" />
    <path
       d="M 423.572,64.802 L 508.611,16.532"
       id="path172"
       style="fill:none;stroke:#000000;stroke-width:1.79999995;stroke-linecap:round;stroke-linejoin:round" />
    <path
       d="M 503.693,22.845 L 508.611,16.532 L 500.67,17.517"
       id="path174"
       style="fill:#000000;fill-rule:evenodd;stroke:none" />
    <path
       d="M 503.693,22.845 L 508.611,16.532 L 500.67,17.517 L 503.693,22.845 z"
       id="path176"
       style="fill:none;stroke:#000000;stroke-width:1.79999995;stroke-linecap:round;stroke-linejoin:round" />
    <path
       d="M 423.572,113.071 L 508.611,64.802"
       id="path178"
       style="fill:none;stroke:#000000;stroke-width:1.79999995;stroke-linecap:round;stroke-linejoin:round" />
    <path
       d="M 503.693,71.111 L 508.611,64.802 L 500.67,65.786"
       id="path180"
       style="fill:#000000;fill-rule:evenodd;stroke:none" />
    <path
       d="M 503.693,71.111 L 508.611,64.802 L 500.67,65.786 L 503.693,71.111 z"
       id="path182"
       style="fill:none;stroke:#000000;stroke-width:1.79999995;stroke-linecap:round;stroke-linejoin:round" />
    <path
       d="M 423.572,161.341 L 508.611,64.802"
       id="path184"
       style="fill:none;stroke:#000000;stroke-width:1.79999995;stroke-linecap:round;stroke-linejoin:round" />
    <path
       d="M 506.021,72.368 L 508.611,64.802 L 501.427,68.321"
       id="path186"
       style="fill:#000000;fill-rule:evenodd;stroke:none" />
    <path
       d="M 506.021,72.368 L 508.611,64.802 L 501.427,68.321 L 506.021,72.368 z"
       id="path188"
       style="fill:none;stroke:#000000;stroke-width:1.79999995;stroke-linecap:round;stroke-linejoin:round" />
    <path
       d="M 42.7867,16.532 L 127.826,113.071"
       id="path190"
       style="fill:none;stroke:#000000;stroke-width:1.79999995;stroke-linecap:round;stroke-linejoin:round;stroke-dasharray:6, 3" />
    <path
       d="M 120.646,109.548 L 127.826,113.071 L 125.24,105.501"
       id="path192"
       style="fill:#000000;fill-rule:evenodd;stroke:none" />
    <path
       d="M 120.646,109.548 L 127.826,113.071 L 125.24,105.501 L 120.646,109.548 z"
       id="path194"
       style="fill:none;stroke:#000000;stroke-width:1.79999995;stroke-linecap:round;stroke-linejoin:round" />
    <path
       d="M 42.7867,64.802 L 127.826,113.071"
       id="path196"
       style="fill:none;stroke:#000000;stroke-width:1.79999995;stroke-linecap:round;stroke-linejoin:round;stroke-dasharray:6, 3" />
    <path
       d="M 119.888,112.083 L 127.826,113.071 L 122.912,106.759"
       id="path198"
       style="fill:#000000;fill-rule:evenodd;stroke:none" />
    <path
       d="M 119.888,112.083 L 127.826,113.071 L 122.912,106.759 L 119.888,112.083 z"
       id="path200"
       style="fill:none;stroke:#000000;stroke-width:1.79999995;stroke-linecap:round;stroke-linejoin:round" />
    <path
       d="M 42.7867,113.071 L 127.826,161.341"
       id="path202"
       style="fill:none;stroke:#000000;stroke-width:1.79999995;stroke-linecap:round;stroke-linejoin:round;stroke-dasharray:6, 3" />
    <path
       d="M 119.888,160.353 L 127.826,161.341 L 122.912,155.028"
       id="path204"
       style="fill:#000000;fill-rule:evenodd;stroke:none" />
    <path
       d="M 119.888,160.353 L 127.826,161.341 L 122.912,155.028 L 119.888,160.353 z"
       id="path206"
       style="fill:none;stroke:#000000;stroke-width:1.79999995;stroke-linecap:round;stroke-linejoin:round" />
    <path
       d="M 42.7867,161.341 L 127.826,161.341"
       id="path208"
       style="fill:none;stroke:#000000;stroke-width:1.79999995;stroke-linecap:round;stroke-linejoin:round;stroke-dasharray:6, 3" />
    <path
       d="M 120.435,164.4 L 127.826,161.341 L 120.435,158.278"
       id="path210"
       style="fill:#000000;fill-rule:evenodd;stroke:none" />
    <path
       d="M 120.435,164.4 L 127.826,161.341 L 120.435,158.278 L 120.435,164.4 z"
       id="path212"
       style="fill:none;stroke:#000000;stroke-width:1.79999995;stroke-linecap:round;stroke-linejoin:round" />
    <path
       d="M 169.716,16.532 L 254.756,113.071"
       id="path214"
       style="fill:none;stroke:#ff0000;stroke-width:1.79999995;stroke-linecap:round;stroke-linejoin:round;stroke-dasharray:6, 3" />
    <path
       d="M 247.572,109.548 L 254.756,113.071 L 252.17,105.501"
       id="path216"
       style="fill:#ff0000;fill-rule:evenodd;stroke:none" />
    <path
       d="M 247.572,109.548 L 254.756,113.071 L 252.17,105.501 L 247.572,109.548 z"
       id="path218"
       style="fill:none;stroke:#ff0000;stroke-width:1.79999995;stroke-linecap:round;stroke-linejoin:round" />
    <path
       d="M 169.716,64.802 L 254.756,113.071"
       id="path220"
       style="fill:none;stroke:#000000;stroke-width:1.79999995;stroke-linecap:round;stroke-linejoin:round;stroke-dasharray:6, 3" />
    <path
       d="M 246.814,112.083 L 254.756,113.071 L 249.838,106.759"
       id="path222"
       style="fill:#000000;fill-rule:evenodd;stroke:none" />
    <path
       d="M 246.814,112.083 L 254.756,113.071 L 249.838,106.759 L 246.814,112.083 z"
       id="path224"
       style="fill:none;stroke:#000000;stroke-width:1.79999995;stroke-linecap:round;stroke-linejoin:round" />
    <path
       d="M 169.716,113.071 L 254.756,161.341"
       id="path226"
       style="fill:none;stroke:#000000;stroke-width:1.79999995;stroke-linecap:round;stroke-linejoin:round;stroke-dasharray:6, 3" />
    <path
       d="M 246.814,160.353 L 254.756,161.341 L 249.838,155.028"
       id="path228"
       style="fill:#000000;fill-rule:evenodd;stroke:none" />
    <path
       d="M 246.814,160.353 L 254.756,161.341 L 249.838,155.028 L 246.814,160.353 z"
       id="path230"
       style="fill:none;stroke:#000000;stroke-width:1.79999995;stroke-linecap:round;stroke-linejoin:round" />
    <path
       d="M 169.716,161.341 L 254.756,161.341"
       id="path232"
       style="fill:none;stroke:#000000;stroke-width:1.79999995;stroke-linecap:round;stroke-linejoin:round;stroke-dasharray:6, 3" />
    <path
       d="M 247.365,164.4 L 254.756,161.341 L 247.365,158.278"
       id="path234"
       style="fill:#000000;fill-rule:evenodd;stroke:none" />
    <path
       d="M 247.365,164.4 L 254.756,161.341 L 247.365,158.278 L 247.365,164.4 z"
       id="path236"
       style="fill:none;stroke:#000000;stroke-width:1.79999995;stroke-linecap:round;stroke-linejoin:round" />
    <path
       d="M 296.642,16.532 L 381.681,113.071"
       id="path238"
       style="fill:none;stroke:#000000;stroke-width:1.79999995;stroke-linecap:round;stroke-linejoin:round;stroke-dasharray:6, 3" />
    <path
       d="M 374.502,109.548 L 381.681,113.071 L 379.095,105.501"
       id="path240"
       style="fill:#000000;fill-rule:evenodd;stroke:none" />
    <path
       d="M 374.502,109.548 L 381.681,113.071 L 379.095,105.501 L 374.502,109.548 z"
       id="path242"
       style="fill:none;stroke:#000000;stroke-width:1.79999995;stroke-linecap:round;stroke-linejoin:round" />
    <path
       d="M 296.642,64.802 L 381.681,113.071"
       id="path244"
       style="fill:none;stroke:#000000;stroke-width:1.79999995;stroke-linecap:round;stroke-linejoin:round;stroke-dasharray:6, 3" />
    <path
       d="M 373.744,112.083 L 381.681,113.071 L 376.767,106.759"
       id="path246"
       style="fill:#000000;fill-rule:evenodd;stroke:none" />
    <path
       d="M 373.744,112.083 L 381.681,113.071 L 376.767,106.759 L 373.744,112.083 z"
       id="path248"
       style="fill:none;stroke:#000000;stroke-width:1.79999995;stroke-linecap:round;stroke-linejoin:round" />
    <path
       d="M 296.642,113.071 L 381.681,161.341"
       id="path250"
       style="fill:none;stroke:#000000;stroke-width:1.79999995;stroke-linecap:round;stroke-linejoin:round;stroke-dasharray:6, 3" />
    <path
       d="M 373.744,160.353 L 381.681,161.341 L 376.767,155.028"
       id="path252"
       style="fill:#000000;fill-rule:evenodd;stroke:none" />
    <path
       d="M 373.744,160.353 L 381.681,161.341 L 376.767,155.028 L 373.744,160.353 z"
       id="path254"
       style="fill:none;stroke:#000000;stroke-width:1.79999995;stroke-linecap:round;stroke-linejoin:round" />
    <path
       d="M 296.642,161.341 L 381.681,161.341"
       id="path256"
       style="fill:none;stroke:#000000;stroke-width:1.79999995;stroke-linecap:round;stroke-linejoin:round;stroke-dasharray:6, 3" />
    <path
       d="M 374.291,164.4 L 381.681,161.341 L 374.291,158.278"
       id="path258"
       style="fill:#000000;fill-rule:evenodd;stroke:none" />
    <path
       d="M 374.291,164.4 L 381.681,161.341 L 374.291,158.278 L 374.291,164.4 z"
       id="path260"
       style="fill:none;stroke:#000000;stroke-width:1.79999995;stroke-linecap:round;stroke-linejoin:round" />
    <path
       d="M 423.572,16.532 L 508.611,113.071"
       id="path262"
       style="fill:none;stroke:#000000;stroke-width:1.79999995;stroke-linecap:round;stroke-linejoin:round;stroke-dasharray:6, 3" />
    <path
       d="M 501.427,109.548 L 508.611,113.071 L 506.021,105.501"
       id="path264"
       style="fill:#000000;fill-rule:evenodd;stroke:none" />
    <path
       d="M 501.427,109.548 L 508.611,113.071 L 506.021,105.501 L 501.427,109.548 z"
       id="path266"
       style="fill:none;stroke:#000000;stroke-width:1.79999995;stroke-linecap:round;stroke-linejoin:round" />
    <path
       d="M 423.572,64.802 L 508.611,113.071"
       id="path268"
       style="fill:none;stroke:#ff0000;stroke-width:1.79999995;stroke-linecap:round;stroke-linejoin:round;stroke-dasharray:6, 3" />
    <path
       d="M 500.67,112.083 L 508.611,113.071 L 503.693,106.759"
       id="path270"
       style="fill:#ff0000;fill-rule:evenodd;stroke:none" />
    <path
       d="M 500.67,112.083 L 508.611,113.071 L 503.693,106.759 L 500.67,112.083 z"
       id="path272"
       style="fill:none;stroke:#ff0000;stroke-width:1.79999995;stroke-linecap:round;stroke-linejoin:round" />
    <path
       d="M 423.572,113.071 L 508.611,161.341"
       id="path274"
       style="fill:none;stroke:#000000;stroke-width:1.79999995;stroke-linecap:round;stroke-linejoin:round;stroke-dasharray:6, 3" />
    <path
       d="M 500.67,160.353 L 508.611,161.341 L 503.693,155.028"
       id="path276"
       style="fill:#000000;fill-rule:evenodd;stroke:none" />
    <path
       d="M 500.67,160.353 L 508.611,161.341 L 503.693,155.028 L 500.67,160.353 z"
       id="path278"
       style="fill:none;stroke:#000000;stroke-width:1.79999995;stroke-linecap:round;stroke-linejoin:round" />
    <path
       d="M 423.572,161.341 L 508.611,161.341"
       id="path280"
       style="fill:none;stroke:#000000;stroke-width:1.79999995;stroke-linecap:round;stroke-linejoin:round;stroke-dasharray:6, 3" />
    <path
       d="M 501.216,164.4 L 508.611,161.341 L 501.216,158.278"
       id="path282"
       style="fill:#000000;fill-rule:evenodd;stroke:none" />
    <path
       d="M 501.216,164.4 L 508.611,161.341 L 501.216,158.278 L 501.216,164.4 z"
       id="path284"
       style="fill:none;stroke:#000000;stroke-width:1.79999995;stroke-linecap:round;stroke-linejoin:round" />
  </g>
</svg>
